<?xml version="1.0" encoding="UTF-8" standalone="no"?>
<!DOCTYPE svg PUBLIC "-//W3C//DTD SVG 1.1//EN" "http://www.w3.org/Graphics/SVG/1.1/DTD/svg11.dtd">
<svg width="100%" height="100%" viewBox="0 0 700 188" version="1.1" xmlns="http://www.w3.org/2000/svg" xmlns:xlink="http://www.w3.org/1999/xlink" xml:space="preserve" xmlns:serif="http://www.serif.com/" style="fill-rule:evenodd;clip-rule:evenodd;stroke-linejoin:round;stroke-miterlimit:2;">
    <g id="Logo" transform="matrix(1.118211,0,0,1,-15.654952,-8)">
        <g transform="matrix(0.894286,0,0,1,31.438571,34)">
            <g transform="matrix(1,0,0,1,0,94.5)">
                <path d="M14,-29.25C14,-26 14.521,-22.958 15.562,-20.125C16.604,-17.292 18.083,-14.833 20,-12.75C21.917,-10.667 24.229,-9.021 26.938,-7.812C29.646,-6.604 32.708,-6 36.125,-6C39.458,-6 42.562,-6.604 45.438,-7.812C48.312,-9.021 50.792,-10.667 52.875,-12.75C54.958,-14.833 56.583,-17.292 57.75,-20.125C58.917,-22.958 59.5,-26 59.5,-29.25C59.5,-32.5 58.917,-35.542 57.75,-38.375C56.583,-41.208 54.958,-43.667 52.875,-45.75C50.792,-47.833 48.312,-49.479 45.438,-50.688C42.562,-51.896 39.458,-52.5 36.125,-52.5C32.708,-52.5 29.646,-51.896 26.938,-50.688C24.229,-49.479 21.917,-47.833 20,-45.75C18.083,-43.667 16.604,-41.208 15.562,-38.375C14.521,-35.542 14,-32.5 14,-29.25ZM67.375,0L59.125,0L59.125,-9.75L58.875,-9.75C57.542,-7.75 55.958,-6.042 54.125,-4.625C52.292,-3.208 50.375,-2.042 48.375,-1.125C46.375,-0.208 44.312,0.458 42.188,0.875C40.062,1.292 38.042,1.5 36.125,1.5C31.542,1.5 27.354,0.729 23.562,-0.813C19.771,-2.354 16.5,-4.5 13.75,-7.25C11,-10 8.854,-13.25 7.312,-17C5.771,-20.75 5,-24.833 5,-29.25C5,-33.667 5.771,-37.75 7.312,-41.5C8.854,-45.25 11,-48.5 13.75,-51.25C16.5,-54 19.771,-56.146 23.562,-57.688C27.354,-59.229 31.542,-60 36.125,-60C38.042,-60 40.062,-59.792 42.188,-59.375C44.312,-58.958 46.375,-58.292 48.375,-57.375C50.375,-56.458 52.292,-55.292 54.125,-53.875C55.958,-52.458 57.542,-50.75 58.875,-48.75L59.125,-48.75L59.125,-94.5L67.375,-94.5L67.375,0Z"/>
                <path d="M130.875,-33.75C130.875,-39.333 129.208,-43.854 125.875,-47.312C122.542,-50.771 117.875,-52.5 111.875,-52.5C109.208,-52.5 106.625,-51.979 104.125,-50.938C101.625,-49.896 99.438,-48.5 97.562,-46.75C95.688,-45 94.188,-43 93.062,-40.75C91.938,-38.5 91.375,-36.167 91.375,-33.75L130.875,-33.75ZM91.125,-27C91.375,-24.083 92.083,-21.333 93.25,-18.75C94.417,-16.167 95.958,-13.938 97.875,-12.062C99.792,-10.188 102,-8.708 104.5,-7.625C107,-6.542 109.708,-6 112.625,-6C117.042,-6 120.854,-7.021 124.062,-9.062C127.271,-11.104 129.708,-13.458 131.375,-16.125L137.75,-10.875C134.25,-6.458 130.396,-3.292 126.188,-1.375C121.979,0.542 117.458,1.5 112.625,1.5C108.292,1.5 104.271,0.729 100.562,-0.813C96.854,-2.354 93.667,-4.5 91,-7.25C88.333,-10 86.229,-13.25 84.688,-17C83.146,-20.75 82.375,-24.833 82.375,-29.25C82.375,-33.667 83.125,-37.75 84.625,-41.5C86.125,-45.25 88.208,-48.5 90.875,-51.25C93.542,-54 96.667,-56.146 100.25,-57.688C103.833,-59.229 107.708,-60 111.875,-60C116.292,-60 120.25,-59.208 123.75,-57.625C127.25,-56.042 130.188,-53.938 132.562,-51.313C134.938,-48.688 136.75,-45.604 138,-42.062C139.25,-38.521 139.875,-34.75 139.875,-30.75L139.875,-27L91.125,-27Z"/>
                <path d="M180.625,0L171.375,0L147.625,-58.5L157.5,-58.5L176.125,-9.25L176.375,-9.25L195,-58.5L204.375,-58.5L180.625,0Z"/>
            </g>
            <g transform="matrix(1,0,0,1,206.125,94.5)">
                <path d="M47.75,-41.125C46.833,-42.458 45.542,-43.563 43.875,-44.438C42.208,-45.312 40.417,-45.75 38.5,-45.75C33.75,-45.75 30.063,-44.333 27.438,-41.5C24.812,-38.667 23.5,-34.958 23.5,-30.375C23.5,-25.792 24.812,-22.083 27.438,-19.25C30.063,-16.417 33.75,-15 38.5,-15C40.583,-15 42.375,-15.458 43.875,-16.375C45.375,-17.292 46.667,-18.375 47.75,-19.625L60.125,-6.625C57.208,-3.625 53.771,-1.521 49.812,-0.312C45.854,0.896 42.083,1.5 38.5,1.5C33.833,1.5 29.438,0.75 25.312,-0.75C21.187,-2.25 17.604,-4.396 14.562,-7.188C11.521,-9.979 9.125,-13.333 7.375,-17.25C5.625,-21.167 4.75,-25.542 4.75,-30.375C4.75,-35.208 5.625,-39.583 7.375,-43.5C9.125,-47.417 11.521,-50.771 14.562,-53.562C17.604,-56.354 21.187,-58.5 25.312,-60C29.438,-61.5 33.833,-62.25 38.5,-62.25C42.083,-62.25 45.854,-61.646 49.812,-60.438C53.771,-59.229 57.208,-57.125 60.125,-54.125L47.75,-41.125Z"/>
                <path d="M105,-7.625L104.75,-7.625C102.667,-4.375 99.896,-2.042 96.438,-0.625C92.979,0.792 89.333,1.5 85.5,1.5C82.667,1.5 79.938,1.104 77.312,0.312C74.688,-0.479 72.375,-1.667 70.375,-3.25C68.375,-4.833 66.792,-6.792 65.625,-9.125C64.458,-11.458 63.875,-14.167 63.875,-17.25C63.875,-20.75 64.521,-23.708 65.812,-26.125C67.104,-28.542 68.854,-30.542 71.062,-32.125C73.271,-33.708 75.792,-34.938 78.625,-35.813C81.458,-36.688 84.396,-37.333 87.438,-37.75C90.479,-38.167 93.521,-38.417 96.562,-38.5C99.604,-38.583 102.417,-38.625 105,-38.625C105,-41.958 103.812,-44.604 101.438,-46.562C99.062,-48.521 96.25,-49.5 93,-49.5C89.917,-49.5 87.104,-48.854 84.562,-47.562C82.021,-46.271 79.75,-44.5 77.75,-42.25L67.75,-52.5C71.25,-55.75 75.333,-58.188 80,-59.813C84.667,-61.438 89.5,-62.25 94.5,-62.25C100,-62.25 104.521,-61.562 108.062,-60.188C111.604,-58.812 114.438,-56.792 116.562,-54.125C118.688,-51.458 120.167,-48.188 121,-44.312C121.833,-40.437 122.25,-35.958 122.25,-30.875L122.25,0L105,0L105,-7.625ZM100.375,-26.625C98.958,-26.625 97.188,-26.562 95.062,-26.438C92.938,-26.312 90.896,-25.958 88.938,-25.375C86.979,-24.792 85.312,-23.917 83.938,-22.75C82.562,-21.583 81.875,-19.958 81.875,-17.875C81.875,-15.625 82.833,-13.958 84.75,-12.875C86.667,-11.792 88.667,-11.25 90.75,-11.25C92.583,-11.25 94.354,-11.5 96.062,-12C97.771,-12.5 99.292,-13.208 100.625,-14.125C101.958,-15.042 103.021,-16.208 103.812,-17.625C104.604,-19.042 105,-20.708 105,-22.625L105,-26.625L100.375,-26.625Z"/>
                <path d="M135.75,-60.75L153,-60.75L153,-52.75L153.25,-52.75C154,-53.833 154.979,-54.938 156.188,-56.062C157.396,-57.188 158.812,-58.208 160.438,-59.125C162.062,-60.042 163.833,-60.792 165.75,-61.375C167.667,-61.958 169.708,-62.25 171.875,-62.25C176.375,-62.25 180.458,-61.479 184.125,-59.938C187.792,-58.396 190.938,-56.229 193.562,-53.438C196.188,-50.646 198.208,-47.333 199.625,-43.5C201.042,-39.667 201.75,-35.458 201.75,-30.875C201.75,-26.625 201.104,-22.562 199.812,-18.688C198.521,-14.813 196.688,-11.375 194.312,-8.375C191.938,-5.375 189.042,-2.979 185.625,-1.188C182.208,0.604 178.333,1.5 174,1.5C170.083,1.5 166.438,0.896 163.062,-0.312C159.688,-1.521 156.917,-3.583 154.75,-6.5L154.5,-6.5L154.5,28.5L135.75,28.5L135.75,-60.75ZM153,-30.375C153,-25.792 154.312,-22.083 156.938,-19.25C159.562,-16.417 163.25,-15 168,-15C172.75,-15 176.438,-16.417 179.062,-19.25C181.688,-22.083 183,-25.792 183,-30.375C183,-34.958 181.688,-38.667 179.062,-41.5C176.438,-44.333 172.75,-45.75 168,-45.75C163.25,-45.75 159.562,-44.333 156.938,-41.5C154.312,-38.667 153,-34.958 153,-30.375Z"/>
            </g>
            <g transform="matrix(1,0,0,1,412.25,94.5)">
                <path d="M24.125,-6C24.125,-4.25 23.5,-2.688 22.25,-1.312C21,0.062 19.375,0.75 17.375,0.75C15.375,0.75 13.75,0.062 12.5,-1.312C11.25,-2.688 10.625,-4.25 10.625,-6C10.625,-7.75 11.25,-9.313 12.5,-10.688C13.75,-12.063 15.375,-12.75 17.375,-12.75C19.375,-12.75 21,-12.063 22.25,-10.688C23.5,-9.313 24.125,-7.75 24.125,-6Z"/>
            </g>
            <g transform="matrix(1,0,0,1,447,94.5)">
                <path d="M23.625,-6.25C25.875,-6.25 28.125,-7.312 30.375,-9.438C32.625,-11.563 34.75,-14.125 36.75,-17.125C38.75,-20.125 40.542,-23.25 42.125,-26.5C43.708,-29.75 44.958,-32.458 45.875,-34.625L49.875,-56C48.708,-56.833 47.583,-57.417 46.5,-57.75C45.417,-58.083 43.917,-58.25 42,-58.25C38.167,-58.25 34.688,-57.062 31.562,-54.688C28.438,-52.313 25.771,-49.25 23.562,-45.5C21.354,-41.75 19.646,-37.583 18.438,-33C17.229,-28.417 16.625,-23.917 16.625,-19.5C16.625,-15.25 17.146,-11.979 18.188,-9.688C19.229,-7.396 21.042,-6.25 23.625,-6.25ZM43.375,-24.5C42.292,-21.5 40.938,-18.458 39.312,-15.375C37.688,-12.292 35.812,-9.5 33.688,-7C31.562,-4.5 29.208,-2.458 26.625,-0.875C24.042,0.708 21.292,1.5 18.375,1.5C9.708,1.5 5.375,-4.792 5.375,-17.375C5.375,-23.208 6.208,-28.896 7.875,-34.438C9.542,-39.979 11.958,-44.917 15.125,-49.25C18.292,-53.583 22.146,-57.062 26.688,-59.688C31.229,-62.312 36.375,-63.625 42.125,-63.625C44.208,-63.625 45.875,-63.437 47.125,-63.063C48.375,-62.688 49.875,-62.125 51.625,-61.375C54.958,-63.125 58.458,-64 62.125,-64L50.875,-6.875L60,-6.875L60,-3.75C58.333,-2.417 56.333,-1.333 54,-0.5C51.667,0.333 49.375,0.75 47.125,0.75C44.708,0.75 42.979,0.229 41.938,-0.813C40.896,-1.854 40.375,-2.958 40.375,-4.125C40.375,-5.625 40.667,-8.083 41.25,-11.5C41.833,-14.917 42.708,-19.25 43.875,-24.5L43.375,-24.5Z"/>
                <path d="M79,18.25C81.917,18.75 84.833,19.792 87.75,21.375L87.75,25L68.125,25L67,23.875L72.375,-1L84,-55.25L76.375,-56.375L76.375,-59.5C79.125,-60.667 82.021,-61.708 85.062,-62.625C88.104,-63.542 90.958,-64 93.625,-64L96.125,-62.5L91,-40.5L91.5,-40.5C93,-43.833 94.646,-46.917 96.438,-49.75C98.229,-52.583 100.167,-55.062 102.25,-57.188C104.333,-59.312 106.583,-60.979 109,-62.188C111.417,-63.396 114,-64 116.75,-64C118.583,-64 120.333,-63.646 122,-62.938C123.667,-62.229 125.125,-61.146 126.375,-59.688C127.625,-58.229 128.604,-56.417 129.312,-54.25C130.021,-52.083 130.375,-49.583 130.375,-46.75C130.375,-40.333 129.417,-34.208 127.5,-28.375C125.583,-22.542 122.979,-17.417 119.688,-13C116.396,-8.583 112.542,-5.062 108.125,-2.438C103.708,0.188 98.958,1.5 93.875,1.5C92.458,1.5 91.25,1.458 90.25,1.375C89.25,1.292 88.375,1.146 87.625,0.938C86.875,0.729 86.146,0.458 85.438,0.125C84.729,-0.208 83.958,-0.583 83.125,-1L79,18.25ZM110.875,-56.25C108.458,-56.25 106.167,-55.313 104,-53.438C101.833,-51.563 99.812,-49.292 97.938,-46.625C96.062,-43.958 94.375,-41.146 92.875,-38.188C91.375,-35.229 90.167,-32.625 89.25,-30.375L84.375,-6.75C85.542,-5.75 86.771,-5.021 88.062,-4.562C89.354,-4.104 91.417,-3.875 94.25,-3.875C97.583,-3.875 100.729,-5.104 103.688,-7.562C106.646,-10.021 109.229,-13.167 111.438,-17C113.646,-20.833 115.396,-25.104 116.688,-29.813C117.979,-34.521 118.625,-39.167 118.625,-43.75C118.625,-47.75 117.938,-50.833 116.562,-53C115.188,-55.167 113.292,-56.25 110.875,-56.25Z"/>
                <path d="M146.75,18.25C149.667,18.75 152.583,19.792 155.5,21.375L155.5,25L135.875,25L134.75,23.875L140.125,-1L151.75,-55.25L144.125,-56.375L144.125,-59.5C146.875,-60.667 149.771,-61.708 152.812,-62.625C155.854,-63.542 158.708,-64 161.375,-64L163.875,-62.5L158.75,-40.5L159.25,-40.5C160.75,-43.833 162.396,-46.917 164.188,-49.75C165.979,-52.583 167.917,-55.062 170,-57.188C172.083,-59.312 174.333,-60.979 176.75,-62.188C179.167,-63.396 181.75,-64 184.5,-64C186.333,-64 188.083,-63.646 189.75,-62.938C191.417,-62.229 192.875,-61.146 194.125,-59.688C195.375,-58.229 196.354,-56.417 197.062,-54.25C197.771,-52.083 198.125,-49.583 198.125,-46.75C198.125,-40.333 197.167,-34.208 195.25,-28.375C193.333,-22.542 190.729,-17.417 187.438,-13C184.146,-8.583 180.292,-5.062 175.875,-2.438C171.458,0.188 166.708,1.5 161.625,1.5C160.208,1.5 159,1.458 158,1.375C157,1.292 156.125,1.146 155.375,0.938C154.625,0.729 153.896,0.458 153.188,0.125C152.479,-0.208 151.708,-0.583 150.875,-1L146.75,18.25ZM178.625,-56.25C176.208,-56.25 173.917,-55.313 171.75,-53.438C169.583,-51.563 167.562,-49.292 165.688,-46.625C163.812,-43.958 162.125,-41.146 160.625,-38.188C159.125,-35.229 157.917,-32.625 157,-30.375L152.125,-6.75C153.292,-5.75 154.521,-5.021 155.812,-4.562C157.104,-4.104 159.167,-3.875 162,-3.875C165.333,-3.875 168.479,-5.104 171.438,-7.562C174.396,-10.021 176.979,-13.167 179.188,-17C181.396,-20.833 183.146,-25.104 184.438,-29.813C185.729,-34.521 186.375,-39.167 186.375,-43.75C186.375,-47.75 185.688,-50.833 184.312,-53C182.938,-55.167 181.042,-56.25 178.625,-56.25Z"/>
            </g>
        </g>
    </g>
</svg>
